<?xml version="1.0" encoding="utf-8"?>
<!-- Generator: Adobe Illustrator 24.2.1, SVG Export Plug-In . SVG Version: 6.00 Build 0)  -->
<svg version="1.1" id="Layer_1" xmlns="http://www.w3.org/2000/svg" xmlns:xlink="http://www.w3.org/1999/xlink" x="0px" y="0px"
	 viewBox="0 0 212 360" style="enable-background:new 0 0 212 360;" xml:space="preserve">
<style type="text/css">
	.st0{fill:#CC0004;}
	.st1{fill:#001F79;}
	.st2{fill:#181818;}
	.st3{fill:#7F868F;}
	.st4{fill:#FFFFFF;}
	.st5{fill:#F03800;}
	.st6{fill:#F20000;}
	.st7{fill:#FF9100;}
	.st8{fill:#FF641A;}
	.st9{fill:#FFB743;}
	.st10{fill:#FFA300;}
	.st11{fill:#704C55;}
	.st12{fill:#5B362A;}
	.st13{fill:#F79E1C;}
	.st14{fill:#D88A19;}
	.st15{fill:#F4AB37;}
	.st16{fill:#2353CC;}
	.st17{fill:#F78E36;}
	.st18{fill:#F86F1B;}
	.st19{fill:#FFC41D;}
	.st20{fill:#BF8E13;}
	.st21{fill:#FDD9B4;}
	.st22{fill:#FAB684;}
	.st23{fill:#DDA20E;}
	.st24{fill:#D8A177;}
	.st25{fill:#E0A882;}
	.st26{fill:#ECB784;}
	.st27{fill:#DDB7A0;}
	.st28{fill:#D6A889;}
	.st29{fill:#CC9675;}
	.st30{fill:#C4845C;}
	.st31{fill:#F4FBFF;}
	.st32{fill:#4380A0;}
	.st33{fill:#F3F3F3;}
	.st34{fill:#E4E4E4;}
	.st35{fill:#1F4AA0;}
	.st36{fill:#1AA334;}
	.st37{fill:#0D6B1D;}
	.st38{fill:#43809F;}
	.st39{fill:#4176E0;}
	.st40{fill:#79A73A;}
	.st41{fill:#AAC16B;}
	.st42{fill:#DCD9DC;}
	.st43{fill:#890007;}
	.st44{fill:#FFFFFF;stroke:#FFFFFF;stroke-width:7;stroke-miterlimit:10;}
	.st45{fill:#E27B62;}
	.st46{fill:#007CFF;}
	.st47{fill:#1A2E35;}
	.st48{opacity:0.9;fill:#FFFFFF;}
	.st49{opacity:0.1;fill:#FFFFFF;enable-background:new    ;}
	.st50{opacity:0.2;}
	.st51{fill:#E5E5E5;}
	.st52{opacity:0.7;fill:#FFFFFF;}
	.st53{fill:#CA0004;}
	.st54{fill:#4976F2;}
	.st55{opacity:0.3;fill:url(#SVGID_1_);}
	.st56{fill:url(#SVGID_2_);}
	.st57{fill:url(#SVGID_3_);}
	.st58{fill:url(#SVGID_4_);}
	.st59{fill:url(#SVGID_5_);}
	.st60{fill:url(#SVGID_6_);}
	.st61{fill:url(#SVGID_7_);}
	.st62{fill:url(#SVGID_8_);}
	.st63{fill:url(#SVGID_9_);}
	.st64{filter:url(#Adobe_OpacityMaskFilter);}
	.st65{filter:url(#Adobe_OpacityMaskFilter_1_);}
	.st66{mask:url(#SVGID_10_);fill:url(#SVGID_11_);}
	.st67{fill:url(#SVGID_12_);}
	.st68{opacity:0.72;fill:#D9D9D9;}
	.st69{fill:#EEA886;}
	.st70{fill:#292C47;}
	.st71{fill:#C4C6D1;}
	.st72{fill:#191817;}
	.st73{fill:#A77860;}
	.st74{fill:#C98462;}
	.st75{fill:#807066;}
	.st76{fill:#ECEFF1;}
	.st77{fill:#78B4ED;}
	.st78{fill:#FFD15B;}
	.st79{fill:#F5F5F5;}
	.st80{fill:#E6E6E6;}
	.st81{fill:#E2A40A;}
	.st82{fill:#FFCEBF;}
	.st83{fill:#FFB09E;}
	.st84{fill:#7A6D79;}
	.st85{fill:#685E68;}
	.st86{fill:#EFEDEF;}
	.st87{fill:#E5E1E5;}
	.st88{fill:#C9BFC8;}
	.st89{fill:#000102;}
	.st90{fill:#FAEBC8;}
	.st91{fill:#F5DCB4;}
	.st92{fill:#FFC350;}
	.st93{fill:#E6AA46;}
	.st94{fill:#5D5360;}
	.st95{fill:#FFFFFF;stroke:#FFFFFF;stroke-width:3;stroke-miterlimit:10;}
	.st96{fill:#E4EAF8;}
	.st97{fill:#D8DCE5;}
	.st98{fill:#F5F8F9;}
	.st99{opacity:0.3;fill:url(#SVGID_13_);}
	.st100{fill:#0A49C6;}
	.st101{fill:#042E99;}
	.st102{fill:#F9FBFC;}
	.st103{fill:#113C7A;}
	.st104{fill:#CFE3FF;}
	.st105{fill:none;}
	.st106{opacity:0.3;fill:url(#SVGID_14_);}
	.st107{fill:#FF9D6F;}
	.st108{fill:#FF7C40;}
	.st109{fill:#070707;}
	.st110{fill:#1564E8;}
	.st111{opacity:0.3;fill:url(#SVGID_15_);}
	.st112{fill:#4690F9;}
	.st113{fill:#595959;}
	.st114{fill:#2D2D2D;}
	.st115{fill:#9B0008;}
	.st116{fill:#0030A8;}
	.st117{fill:#CC0004;stroke:#FF0004;stroke-width:26;stroke-miterlimit:10;}
	.st118{fill:#01207A;}
	.st119{fill:#E0E0E0;}
	.st120{fill:#EBEBEB;}
	.st121{fill:#FAFAFA;}
	.st122{fill:#E8505B;}
	.st123{opacity:0.3;}
	.st124{fill:#455A64;}
</style>
<path class="st1" d="M186.83,0.81H24.61c-12.8,0-23.17,10.38-23.17,23.17v312.84c0,12.8,10.38,23.17,23.17,23.17h162.22
	c12.8,0,23.17-10.38,23.17-23.17V23.98C210,11.18,199.62,0.81,186.83,0.81z"/>
<path class="st16" d="M181.03,313.65H30.4c-3.2,0-5.79-2.59-5.79-5.79V52.95c0-3.2,2.59-5.79,5.79-5.79h150.63
	c3.2,0,5.79,2.59,5.79,5.79v254.91C186.83,311.06,184.23,313.65,181.03,313.65z"/>
<path class="st19" d="M100.64,123.7l-48.46,14.81c-2.64,0.81-4.33,3.35-4.07,6.11c1.47,15.57,9.63,65.78,54.27,97.24
	c1.98,1.39,4.7,1.39,6.68,0c44.64-31.46,52.8-81.67,54.27-97.24c0.26-2.75-1.43-5.3-4.07-6.11L110.8,123.7
	C107.49,122.69,103.95,122.69,100.64,123.7z"/>
<path class="st4" d="M101.53,200.16c-1.48,0-2.96-0.57-4.1-1.7l-16.75-16.75c-2.26-2.26-2.26-5.93,0-8.19
	c2.26-2.26,5.93-2.26,8.19,0l12.66,12.65l22.22-22.23c2.26-2.26,5.93-2.26,8.19,0c2.26,2.26,2.26,5.93,0,8.19l-26.32,26.32
	C104.5,199.6,103.01,200.16,101.53,200.16z"/>
<path class="st16" d="M123.1,29.78H88.34c-3.2,0-5.79-2.59-5.79-5.79s2.59-5.79,5.79-5.79h34.76c3.2,0,5.79,2.59,5.79,5.79
	S126.3,29.78,123.1,29.78z"/>
<g>
	<path class="st16" d="M111.51,345.52H99.93c-4.8,0-8.69-3.89-8.69-8.69c0-4.8,3.89-8.69,8.69-8.69h11.59c4.8,0,8.69,3.89,8.69,8.69
		C120.2,341.63,116.31,345.52,111.51,345.52z"/>
	<path class="st16" d="M47.78,348.41c-19.2,0-34.76-15.56-34.76-34.76V3.91C6.13,7.93,1.44,15.43,1.44,23.98v312.84
		c0,12.8,10.38,23.17,23.17,23.17h162.22c8.56,0,16.06-4.69,20.07-11.59L47.78,348.41L47.78,348.41z"/>
</g>
<path class="st77" d="M70.96,302.07c-19.2,0-34.76-15.56-34.76-34.76V47.16H30.4c-3.2,0-5.79,2.59-5.79,5.79v254.91
	c0,3.2,2.59,5.79,5.79,5.79h150.63c3.2,0,5.79-2.59,5.79-5.79v-5.79L70.96,302.07L70.96,302.07z"/>
<path class="st78" d="M67.34,133.87l-15.16,4.63c-2.64,0.81-4.33,3.35-4.07,6.11c1.47,15.57,9.63,65.78,54.27,97.24
	c1.98,1.39,4.7,1.39,6.68,0c1.59-1.12,3.03-2.31,4.53-3.48C74.62,203.06,68.3,152.3,67.34,133.87z"/>
</svg>
