<?xml version="1.0" encoding="UTF-8"?>
<!-- Generator: Adobe Illustrator 24.2.1, SVG Export Plug-In . SVG Version: 6.00 Build 0)  -->
<svg version="1.1" id="Layer_1" xmlns="http://www.w3.org/2000/svg" xmlns:xlink="http://www.w3.org/1999/xlink" x="0px" y="0px" viewBox="0 0 360 360" style="enable-background:new 0 0 360 360;" xml:space="preserve">
<style type="text/css">
	.st0{fill:#CC0004;}
	.st1{fill:#001F79;}
	.st2{fill:#181818;}
	.st3{fill:#7F868F;}
	.st4{fill:#FFFFFF;}
	.st5{fill:#F03800;}
	.st6{fill:#F20000;}
	.st7{fill:#FF9100;}
	.st8{fill:#FF641A;}
	.st9{fill:#FFB743;}
	.st10{fill:#FFA300;}
	.st11{fill:#704C55;}
	.st12{fill:#5B362A;}
	.st13{fill:#F79E1C;}
	.st14{fill:#D88A19;}
	.st15{fill:#F4AB37;}
	.st16{fill:#2353CC;}
	.st17{fill:#F78E36;}
	.st18{fill:#F86F1B;}
	.st19{fill:#FFC41D;}
	.st20{fill:#BF8E13;}
	.st21{fill:#FDD9B4;}
	.st22{fill:#FAB684;}
	.st23{fill:#FFD15F;}
	.st24{fill:#DDA20E;}
	.st25{fill:#D8A177;}
	.st26{fill:#E0A882;}
	.st27{fill:#ECB784;}
	.st28{fill:#DDB7A0;}
	.st29{fill:#D6A889;}
	.st30{fill:#CC9675;}
	.st31{fill:#C4845C;}
	.st32{fill:#F4FBFF;}
	.st33{fill:#4380A0;}
	.st34{fill:#F3F3F3;}
	.st35{fill:#E4E4E4;}
	.st36{fill:#1F4AA0;}
	.st37{fill:#1AA334;}
	.st38{fill:#0D6B1D;}
	.st39{fill:#43809F;}
	.st40{fill:#4176E0;}
	.st41{fill:#79A73A;}
	.st42{fill:#AAC16B;}
	.st43{fill:#DCD9DC;}
	.st44{fill:#890007;}
	.st45{fill:#FFFFFF;stroke:#FFFFFF;stroke-width:7;stroke-miterlimit:10;}
	.st46{fill:#E27B62;}
	.st47{fill:#007CFF;}
	.st48{fill:#1A2E35;}
	.st49{opacity:0.9;fill:#FFFFFF;}
	.st50{opacity:0.1;fill:#FFFFFF;enable-background:new    ;}
	.st51{opacity:0.2;}
	.st52{fill:#E5E5E5;}
	.st53{opacity:0.7;fill:#FFFFFF;}
	.st54{fill:#CA0004;}
	.st55{fill:#4976F2;}
	.st56{opacity:0.3;fill:url(#SVGID_1_);}
	.st57{fill:url(#SVGID_2_);}
	.st58{fill:url(#SVGID_3_);}
	.st59{fill:url(#SVGID_4_);}
	.st60{fill:url(#SVGID_5_);}
	.st61{fill:url(#SVGID_6_);}
	.st62{fill:url(#SVGID_7_);}
	.st63{fill:url(#SVGID_8_);}
	.st64{fill:url(#SVGID_9_);}
	.st65{filter:url(#Adobe_OpacityMaskFilter);}
	.st66{filter:url(#Adobe_OpacityMaskFilter_1_);}
	.st67{mask:url(#SVGID_10_);fill:url(#SVGID_11_);}
	.st68{fill:url(#SVGID_12_);}
	.st69{opacity:0.72;fill:#D9D9D9;}
	.st70{fill:#EEA886;}
	.st71{fill:#292C47;}
	.st72{fill:#C4C6D1;}
	.st73{fill:#191817;}
	.st74{fill:#A77860;}
	.st75{fill:#C98462;}
	.st76{fill:#807066;}
	.st77{fill:#ECEFF1;}
	.st78{fill:#78B4ED;}
	.st79{fill:#FFD15B;}
	.st80{fill:#F5F5F5;}
	.st81{fill:#E6E6E6;}
	.st82{fill:#E2A40A;}
	.st83{fill:#FFCEBF;}
	.st84{fill:#FFB09E;}
	.st85{fill:#7A6D79;}
	.st86{fill:#685E68;}
	.st87{fill:#EFEDEF;}
	.st88{fill:#E5E1E5;}
	.st89{fill:#C9BFC8;}
	.st90{fill:#000102;}
	.st91{fill:#FAEBC8;}
	.st92{fill:#F5DCB4;}
	.st93{fill:#FFC350;}
	.st94{fill:#E6AA46;}
	.st95{fill:#5D5360;}
	.st96{fill:#FFFFFF;stroke:#FFFFFF;stroke-width:3;stroke-miterlimit:10;}
	.st97{fill:#E4EAF8;}
	.st98{fill:#D8DCE5;}
	.st99{fill:#F5F8F9;}
	.st100{opacity:0.3;fill:url(#SVGID_13_);}
	.st101{fill:#0A49C6;}
	.st102{fill:#042E99;}
	.st103{fill:#F9FBFC;}
	.st104{fill:#113C7A;}
	.st105{fill:#CFE3FF;}
	.st106{fill:none;}
	.st107{opacity:0.3;fill:url(#SVGID_14_);}
	.st108{fill:#FF9D6F;}
	.st109{fill:#FF7C40;}
	.st110{fill:#070707;}
	.st111{fill:#1564E8;}
	.st112{opacity:0.3;fill:url(#SVGID_15_);}
	.st113{fill:#4690F9;}
	.st114{fill:#595959;}
	.st115{fill:#2D2D2D;}
	.st116{fill:#9B0008;}
	.st117{fill:#0030A8;}
	.st118{fill:#CC0004;stroke:#FF0004;stroke-width:26;stroke-miterlimit:10;}
	.st119{fill:#01207A;}
	.st120{fill:#E0E0E0;}
	.st121{fill:#EBEBEB;}
	.st122{fill:#FAFAFA;}
	.st123{fill:#E8505B;}
	.st124{opacity:0.3;}
	.st125{fill:#455A64;}
</style>
<path class="st14" d="M266.98,58.56V324.1c9.4,0,17.02-7.64,17.02-17.06V75.62C284,66.19,276.38,58.56,266.98,58.56z"/>
<g>
	<path class="st15" d="M286.66,357.28H76.33c-11.79,0-21.34-9.56-21.34-21.34V46.04c0-11.79,9.56-21.34,21.34-21.34h210.33   c11.79,0,21.34,9.56,21.34,21.34v289.9C308,347.72,298.44,357.28,286.66,357.28z"/>
	<path class="st1" d="M76.31,333.15V48.82c0-1.53,1.24-2.77,2.77-2.77h204.84c1.53,0,2.77,1.24,2.77,2.77v284.32   c0,1.53-1.24,2.77-2.77,2.77H79.07C77.54,335.91,76.31,334.67,76.31,333.15L76.31,333.15z"/>
	<path class="st15" d="M252,24.69H110.99c-2.36,0-4.27-1.91-4.27-4.27V7.6c0-2.36,1.91-4.27,4.27-4.27H252   c2.36,0,4.27,1.91,4.27,4.27v12.82C256.27,22.78,254.36,24.69,252,24.69z"/>
	<path class="st14" d="M252,3.33h-21.36c2.36,0,4.27,1.91,4.27,4.27v12.82c0,2.36-1.91,4.27-4.27,4.27H252   c2.36,0,4.27-1.91,4.27-4.27V7.6C256.27,5.24,254.36,3.33,252,3.33z"/>
	<path class="st16" d="M236.33,19.51c-2.86,0-5.18,2.32-5.18,5.18c0,18.35-14.93,33.27-33.27,33.27h-32.76   c-18.35,0-33.27-14.93-33.27-33.27c0-2.86-2.32-5.18-5.18-5.18c-2.86,0-5.18,2.32-5.18,5.18c0,24.06,19.58,43.64,43.64,43.64h32.76   c24.06,0,43.64-19.58,43.64-43.64C241.51,21.83,239.19,19.51,236.33,19.51z"/>
	<path class="st15" d="M160.13,306.36H117.4v-37.03c0-3.15,2.55-5.7,5.7-5.7h31.34c3.15,0,5.7,2.55,5.7,5.7L160.13,306.36   L160.13,306.36z"/>
	<path class="st14" d="M154.43,263.63h-15.67v42.73h21.36v-37.03C160.13,266.18,157.58,263.63,154.43,263.63z"/>
	<path class="st17" d="M245.59,306.36h-42.73v-58.4c0-3.15,2.55-5.7,5.7-5.7h31.34c3.15,0,5.7,2.55,5.7,5.7L245.59,306.36   L245.59,306.36z"/>
	<path class="st18" d="M239.89,242.26h-15.67v64.09h21.36v-58.4C245.59,244.81,243.04,242.26,239.89,242.26z"/>
	<path class="st0" d="M202.86,306.36h-42.73v-86.88c0-3.15,2.55-5.7,5.7-5.7h31.34c3.15,0,5.7,2.55,5.7,5.7L202.86,306.36   L202.86,306.36z"/>
	<path class="st4" d="M197.16,213.77h-15.67v92.58h21.36v-86.89C202.86,216.32,200.31,213.77,197.16,213.77L197.16,213.77z"/>
	<path class="st0" d="M226.59,144.23c0,24.91-20.18,45.09-45.09,45.09s-45.09-20.18-45.09-45.09c0-24.91,20.18-45.09,45.09-45.09   v45.09H226.59z"/>
	<path class="st4" d="M226.59,144.23h-41.28c-2.1,0-3.81-1.7-3.81-3.81V99.14C206.41,99.14,226.59,119.33,226.59,144.23z"/>
	<path class="st1" d="M255.46,301.17H107.52c-2.86,0-5.18,2.32-5.18,5.18s2.32,5.18,5.18,5.18h147.94c2.86,0,5.18-2.32,5.18-5.18   S258.33,301.17,255.46,301.17z"/>
</g>
</svg>